<svg id="Layer_1" enable-background="new 0 0 511.999 511.999" viewBox="0 0 511.999 511.999" xmlns="http://www.w3.org/2000/svg"><g><g><g><path d="m291.055 304.864-31.867 84.979c-2.124 6.373 0 10.622 6.373 12.747 6.373 2.124 10.622 0 12.747-6.373l6.373-14.872h33.992l6.373 14.872c2.124 4.25 6.373 6.373 10.622 6.373h4.25c6.373-2.124 8.498-8.498 6.373-12.747l-36.115-84.979c-2.125-8.498-16.997-8.498-19.121 0zm0 57.36 8.498-23.37 8.498 23.37z"/><path d="m395.154 298.49h-21.244c-6.373 0-10.622 4.25-10.622 10.622v84.979c0 6.373 4.25 10.622 10.622 10.622s10.622-4.25 10.622-10.622v-31.867h10.622c16.996 0 31.867-14.872 31.867-31.867-.001-16.997-14.872-31.867-31.867-31.867zm0 42.489h-10.622v-21.244h10.622c6.373 0 10.622 4.25 10.622 10.622 0 6.373-4.25 10.622-10.622 10.622z"/><path d="m373.909 425.957c-6.373 0-10.622-2.124-14.872-4.25-4.25-2.124-6.373-2.124-10.622 0-2.124 0-2.124 2.124-4.25 2.124-12.746 4.25-25.494 0-36.116-8.498-2.124-2.124-4.25-4.25-8.498-4.25-2.124 0-6.373 2.124-8.498 4.25-8.498 10.622-23.37 12.746-36.116 8.498-8.498-2.124-14.872-8.498-16.996-16.996-4.25-8.498-4.25-16.996 0-23.37l31.867-84.979c4.25-12.746 16.996-21.244 29.742-21.244 10.622 0 21.244 6.373 27.618 16.996 2.124 4.25 6.373 6.373 8.498 6.373 4.25 0 8.498-2.124 8.498-6.373 6.373-10.622 16.996-16.996 27.618-16.996 6.373 0 10.622-4.25 10.622-10.622v-254.935c0-6.373-4.25-10.622-10.622-10.622h-233.69s0 0-2.124 0c0 0 0 0-2.124 0s-4.25 2.124-4.25 2.124l-127.47 127.469c-2.124 2.125-2.124 2.125-2.124 4.249v2.124 2.124 361.16c0 6.373 4.25 10.622 10.622 10.622h361.16c6.373 0 10.622-4.25 10.622-10.622v-63.734c2.128-6.372-2.122-10.622-8.495-10.622zm-244.314-297.425h-91.353l91.352-91.352v91.352z"/><path d="m480.132 298.49h-21.244c-6.373 0-10.622 4.25-10.622 10.622v84.979c0 6.373 4.25 10.622 10.622 10.622s10.622-4.25 10.622-10.622v-31.867h10.622c16.996 0 31.867-14.872 31.867-31.867.001-16.997-14.871-31.867-31.867-31.867zm0 42.489h-10.622v-21.244h10.622c6.373 0 10.622 4.25 10.622 10.622.001 6.373-4.248 10.622-10.622 10.622z"/></g></g></g><g/><g/><g/><g/><g/><g/><g/><g/><g/><g/><g/><g/><g/><g/><g/></svg>