<?xml version="1.0" encoding="utf-8"?>
<!-- Generator: Adobe Illustrator 25.2.0, SVG Export Plug-In . SVG Version: 6.00 Build 0)  -->
<svg version="1.1" id="Layer_1" xmlns="http://www.w3.org/2000/svg" xmlns:xlink="http://www.w3.org/1999/xlink" x="0px" y="0px"
	 viewBox="0 0 512 512" style="enable-background:new 0 0 512 512;" xml:space="preserve">
<style type="text/css">
	.st0{display:none;}
</style>
<g>
	<g>
		<g>
			<path d="M243.2,358.4c2.1,2.1,4.3,2.1,8.5,2.1c4.3,0,6.4,0,8.5-2.1l64-64c4.3-4.3,4.3-10.7,0-14.9l-64-64
				c-4.3-4.3-10.7-4.3-14.9,0s-4.3,10.7,0,14.9l55.5,55.5l-55.5,55.5C241.1,347.7,241.1,354.1,243.2,358.4L243.2,358.4z"/>
			<path d="M358.4,341.3h106.7c6.4,0,10.7-4.3,10.7-10.7s-4.3-10.7-10.7-10.7H358.4c-6.4,0-10.7,4.3-10.7,10.7
				S352,341.3,358.4,341.3L358.4,341.3z"/>
			<path class="st0" d="M630.4,0H225.1c-29.9,0-53.3,23.5-53.3,53.3v405.3c0,29.9,23.5,53.3,53.3,53.3h405.3
				c29.9,0,53.3-23.5,53.3-53.3V53.3C683.7,23.5,660.3,0,630.4,0L630.4,0z M310.4,42.7c6.4,0,10.7,4.3,10.7,10.7S316.8,64,310.4,64
				c-6.4,0-10.7-4.3-10.7-10.7S304,42.7,310.4,42.7z M267.7,42.7c6.4,0,10.7,4.3,10.7,10.7S274.1,64,267.7,64s-10.7-4.3-10.7-10.7
				S261.3,42.7,267.7,42.7z M225.1,42.7c6.4,0,10.7,4.3,10.7,10.7S231.5,64,225.1,64s-10.7-4.3-10.7-10.7S218.7,42.7,225.1,42.7z
				 M662.4,458.7c0,17.1-14.9,32-32,32H225.1c-17.1,0-32-14.9-32-32v-352h469.3L662.4,458.7L662.4,458.7z"/>
		</g>
	</g>
	<path d="M437.3,362.7c-6.4,0-10.7,4.3-10.7,10.7v64c0,17.1-14.9,32-32,32H53.3c-17.1,0-32-14.9-32-32V128h405.3v164.5
		c0,6.4,4.3,10.7,10.7,10.7s10.7-4.3,10.7-10.7V74.7c0-29.9-23.5-53.3-53.3-53.3H53.3C23.5,21.3,0,44.8,0,74.7v362.7
		c0,29.9,23.5,53.3,53.3,53.3h341.3c29.9,0,53.3-23.5,53.3-53.3v-64C448,366.9,443.7,362.7,437.3,362.7L437.3,362.7z M138.7,64
		c6.4,0,10.7,4.3,10.7,10.7s-4.3,10.7-10.7,10.7S128,81.1,128,74.7S132.3,64,138.7,64z M96,64c6.4,0,10.7,4.3,10.7,10.7
		S102.4,85.3,96,85.3s-10.7-4.3-10.7-10.7S89.6,64,96,64z M53.3,64C59.7,64,64,68.3,64,74.7s-4.3,10.7-10.7,10.7
		s-10.7-4.3-10.7-10.7C42.7,68.3,46.9,64,53.3,64z"/>
	<path d="M174.6,358.4c-2.1,2.1-4.3,2.1-8.5,2.1c-4.3,0-6.4,0-8.5-2.1l-64-64c-4.3-4.3-4.3-10.7,0-14.9l64-64
		c4.3-4.3,10.7-4.3,14.9,0s4.3,10.7,0,14.9L117,285.9l55.5,55.5C176.7,347.7,176.7,354.1,174.6,358.4L174.6,358.4z"/>
</g>
<path d="M437.3,362.7c-6.4,0-10.7,4.3-10.7,10.7v64c0,17.1-14.9,32-32,32H53.3c-17.1,0-32-14.9-32-32V128h405.3v164.5
	c0,6.4,4.3,10.7,10.7,10.7s10.7-4.3,10.7-10.7V74.7c0-29.9-23.5-53.3-53.3-53.3H53.3C23.5,21.3,0,44.8,0,74.7v362.7
	c0,29.9,23.5,53.3,53.3,53.3h341.3c29.9,0,53.3-23.5,53.3-53.3v-64C448,366.9,443.7,362.7,437.3,362.7L437.3,362.7z M138.7,64
	c6.4,0,10.7,4.3,10.7,10.7s-4.3,10.7-10.7,10.7S128,81.1,128,74.7S132.3,64,138.7,64z M96,64c6.4,0,10.7,4.3,10.7,10.7
	S102.4,85.3,96,85.3s-10.7-4.3-10.7-10.7S89.6,64,96,64z M53.3,64C59.7,64,64,68.3,64,74.7s-4.3,10.7-10.7,10.7s-10.7-4.3-10.7-10.7
	C42.7,68.3,46.9,64,53.3,64z"/>
<path d="M437.3,362.7c-6.4,0-10.7,4.3-10.7,10.7v64c0,17.1-14.9,32-32,32H53.3c-17.1,0-32-14.9-32-32V128h405.3v164.5
	c0,6.4,4.3,10.7,10.7,10.7s10.7-4.3,10.7-10.7V74.7c0-29.9-23.5-53.3-53.3-53.3H53.3C23.5,21.3,0,44.8,0,74.7v362.7
	c0,29.9,23.5,53.3,53.3,53.3h341.3c29.9,0,53.3-23.5,53.3-53.3v-64C448,366.9,443.7,362.7,437.3,362.7L437.3,362.7z M138.7,64
	c6.4,0,10.7,4.3,10.7,10.7s-4.3,10.7-10.7,10.7S128,81.1,128,74.7S132.3,64,138.7,64z M96,64c6.4,0,10.7,4.3,10.7,10.7
	S102.4,85.3,96,85.3s-10.7-4.3-10.7-10.7S89.6,64,96,64z M53.3,64C59.7,64,64,68.3,64,74.7s-4.3,10.7-10.7,10.7s-10.7-4.3-10.7-10.7
	C42.7,68.3,46.9,64,53.3,64z"/>
</svg>
