<svg id="Layer_1" enable-background="new 0 0 517.701 517.701" viewBox="0 0 517.701 517.701" xmlns="http://www.w3.org/2000/svg"><g><g><g><path d="m439.466 300.984h-40.533c4.267-8.533 8.533-17.066 8.533-27.733v-27.733c0-4.267-4.267-10.667-8.533-10.667-25.6-4.267-51.2-14.934-70.4-32l-226.133 226.133c17.066 12.8 36.267 21.333 59.733 21.333h49.066c8.533 0 17.066-2.133 25.6-4.267v57.6c0 6.4 4.267 10.667 10.667 10.667s10.667-4.267 10.667-10.667v-64s0 0 0-2.133c8.533-4.267 14.934-8.533 21.333-17.066l32-32 34.133 34.133c2.133 2.133 4.267 2.133 8.533 2.133s6.4 0 8.533-2.133c4.267-4.267 4.267-10.667 0-14.934l-34.133-34.133 53.333-53.333h59.733c6.4 0 10.667-4.267 10.667-10.667s-6.399-8.533-12.799-8.533z"/><path d="m281.6 117.518c0-4.267-4.267-8.533-10.667-8.533h-27.733c-10.667 0-19.2 2.133-27.733 8.533v-40.534c0-6.4-4.267-10.667-10.667-10.667s-10.667 4.267-10.667 10.667v59.733l-53.333 53.334-34.133-34.133c-4.267-4.267-10.667-4.267-14.934 0s-4.267 10.667 0 14.934l34.133 34.133-32 32c-6.4 6.4-10.667 14.934-17.066 21.333 0 0 0 0-2.133 0h-64c-6.4 0-10.667 4.267-10.667 10.667s4.267 10.667 10.667 10.667h57.6c-2.133 8.533-4.267 17.066-4.267 25.6v49.066c0 23.467 8.533 42.667 21.333 59.733l226.133-226.133c-14.933-19.2-25.6-42.667-29.866-70.4z"/><path d="m511.999 111.117c-17.066-17.066-57.6-4.267-78.934 6.4l-32-32c8.533-23.467 21.333-64 6.4-78.934-4.267-4.267-10.667-4.267-14.934 0s-4.267 10.667 0 14.934 0 29.867-10.667 57.6l-68.267 10.667c-4.267 0-8.533 4.267-8.533 10.667 0 64 53.333 117.333 117.333 117.333 4.267 0 10.667-4.267 10.667-8.533l10.667-68.267c27.733-10.667 53.333-14.934 57.6-10.667s10.667 4.267 14.934 0c4.268-4.267-2.132-14.933-4.266-19.2z"/></g></g></g><g/><g/><g/><g/><g/><g/><g/><g/><g/><g/><g/><g/><g/><g/><g/></svg>