<svg id="Layer_1" enable-background="new 0 0 510.934 510.934" viewBox="0 0 510.934 510.934" xmlns="http://www.w3.org/2000/svg"><g><g><g><path d="m310.934 22.151c-6.4-2.133-10.667 2.133-12.8 6.4l-128 448c-2.133 6.4 2.133 10.667 6.4 12.8h2.133c4.267 0 8.533-2.133 10.667-8.533l128-448c4.267-2.133 0-8.534-6.4-10.667z"/><path d="m146.667 90.418c-4.267-4.267-10.667-2.133-14.934 2.133l-130.133 168.533c-2.133 4.267-2.133 8.533 0 12.8l128 170.667c2.133 2.133 4.267 4.267 8.533 4.267 2.133 0 4.267 0 6.4-2.133 4.267-4.267 6.4-10.667 2.133-14.934l-123.733-164.267 123.733-162.133c4.268-4.267 4.268-10.666.001-14.933z"/><path d="m509.334 261.084-128-170.667c-4.267-4.267-10.667-6.4-14.934-2.133s-6.4 10.667-2.133 14.934l123.733 164.267-123.733 164.267c-4.267 4.267-2.133 10.667 2.133 14.934 2.133 2.133 4.267 2.133 6.4 2.133 4.267 0 6.4-2.133 8.533-4.267l128-170.667c2.134-4.267 2.134-8.534.001-12.801z"/></g></g></g><g/><g/><g/><g/><g/><g/><g/><g/><g/><g/><g/><g/><g/><g/><g/></svg>