<svg id="Layer_1" enable-background="new 0 0 491.734 491.734" viewBox="0 0 491.734 491.734" xmlns="http://www.w3.org/2000/svg"><g><g><g><path d="m246.934 322.018c-17.066 0-32 14.934-32 32s14.934 32 32 32 32-14.934 32-32-14.934-32-32-32z"/><path d="m161.601 322.018c-17.066 0-32 14.934-32 32s14.934 32 32 32 32-14.934 32-32-14.934-32-32-32z"/><path d="m25.068 247.351 104.533-162.133c2.133-4.267 2.133-10.667-4.267-14.934s-10.667-2.133-14.934 2.133l-108.8 168.534c-2.133 4.267-2.133 8.533 0 10.667l106.667 170.667c2.133 4.267 6.4 4.267 8.533 4.267s4.267 0 6.4-2.133c4.267-2.133 6.4-10.667 4.267-14.934z"/><path d="m332.267 322.018c-17.066 0-32 14.934-32 32s14.934 32 32 32 32-14.934 32-32-14.933-32-32-32z"/><path d="m490.134 240.952-106.667-170.667c-2.133-4.267-10.667-6.4-14.934-4.267s-6.4 10.667-4.267 14.934l102.4 164.267-102.4 164.267c-2.133 4.267-2.133 10.667 4.267 14.934 2.133 2.133 4.267 2.133 6.4 2.133 4.267 0 6.4-2.133 8.533-4.267l106.667-170.667c2.134-2.134 2.134-6.4.001-10.667z"/></g></g></g><g/><g/><g/><g/><g/><g/><g/><g/><g/><g/><g/><g/><g/><g/><g/></svg>