<svg id="Layer_1" enable-background="new 0 0 512.001 512.001" viewBox="0 0 512.001 512.001" xmlns="http://www.w3.org/2000/svg"><g><g><path d="m437.334 0h-234.666s0 0-2.133 0c0 0 0 0-2.133 0s-4.267 2.133-4.267 2.133l-128 128c-2.135 2.134-2.135 2.134-2.135 4.267v2.133 2.133 362.667c0 6.4 4.267 10.667 10.667 10.667h362.667c6.4 0 10.667-4.267 10.667-10.667v-490.666c0-6.4-4.267-10.667-10.667-10.667zm-245.333 36.267v91.733h-91.733zm-2.133 330.667c4.266 4.266 2.133 10.666-2.134 14.933-2.133 2.133-4.267 2.133-6.4 2.133-4.267 0-6.4-2.133-8.533-4.267l-42.667-64c-2.133-4.267-2.133-8.533 0-12.8l42.667-64c4.267-4.267 10.667-6.4 14.934-2.133s6.4 10.667 2.133 14.934l-38.4 57.6zm108.8-138.667-64 170.667c-2.133 4.267-6.4 6.4-10.667 6.4-2.133 0-2.133 0-4.267 0-6.4-2.133-8.533-8.533-6.4-12.8l64-170.667c2.133-6.4 8.533-8.533 12.8-6.4 6.4 0 10.667 6.4 8.534 12.8zm83.199 87.467-42.667 64c-2.133 2.133-6.4 4.267-8.533 4.267s-4.267 0-6.4-2.133c-4.267-4.267-6.4-10.667-2.133-14.934l38.4-57.6-38.4-57.6c-4.267-4.267-2.133-10.667 2.133-14.934 4.267-4.267 10.667-2.133 14.934 2.133l42.667 64c2.133 4.268 2.133 8.534-.001 12.801z"/></g></g><g/><g/><g/><g/><g/><g/><g/><g/><g/><g/><g/><g/><g/><g/><g/></svg>