<svg id="Layer_1" enable-background="new 0 0 512 512" viewBox="0 0 512 512" xmlns="http://www.w3.org/2000/svg"><g><g><g><path d="m373.333 392.534c-2.133-2.133-6.399-4.267-8.533-2.133-4.267 0-6.399 2.133-8.533 6.399-8.533 17.067-27.733 27.733-46.933 27.733h-21.333c-29.866 0-53.334-23.467-53.334-53.333v-42.667c0-29.866 23.467-53.334 53.334-53.334h21.333c19.2 0 36.267 10.667 46.933 27.733 2.133 2.133 4.267 4.267 8.533 6.399 4.267 0 6.399 0 8.533-2.133 2.133-2.133 4.267-2.133 6.399-4.267 4.267-2.133 4.267-6.399 4.267-8.533v-283.731c.001-6.4-4.266-10.667-10.666-10.667h-234.665s0 0-2.133 0c0 0 0 0-2.133 0s-4.267 2.133-4.267 2.133l-128.001 128c-2.134 2.134-2.134 2.134-2.134 4.267v2.133 2.133 362.667c0 6.4 4.267 10.667 10.667 10.667h362.666c6.399 0 10.667-4.267 10.667-10.667v-91.733c0-4.267-2.133-6.399-4.267-8.533-4.266-6.399-6.4-8.533-6.4-8.533zm-245.332-268.8h-.001-91.732l91.733-91.733z"/><path d="m501.333 337.067h-10.667v-10.667c0-6.399-4.267-10.667-10.666-10.667s-10.667 4.267-10.667 10.667v10.667h-10.667c-6.399 0-10.667 4.267-10.667 10.667 0 6.399 4.267 10.667 10.667 10.667h10.667v10.666c0 6.399 4.267 10.667 10.667 10.667 6.399 0 10.666-4.267 10.666-10.667v-10.667h10.667c6.399 0 10.667-4.267 10.667-10.667 0-6.399-4.267-10.666-10.667-10.666z"/><path d="m288.001 315.734h21.333c6.399 0 10.667 4.267 10.667 10.667s4.267 10.667 10.667 10.667c6.399 0 10.666-4.267 10.666-10.667 0-17.067-14.934-31.999-31.999-31.999h-21.333c-17.067 0-31.999 14.934-31.999 31.999v42.667c0 17.067 14.934 31.999 31.999 31.999h21.333c17.067 0 31.999-14.934 31.999-31.999 0-6.399-4.267-10.667-10.666-10.667s-10.667 4.267-10.667 10.667c0 6.399-4.267 10.667-10.667 10.667h-21.333c-6.399 0-10.667-4.267-10.667-10.667v-42.668c0-6.399 4.266-10.666 10.667-10.666z"/><path d="m416.001 337.067h-10.667v-10.667c0-6.399-4.267-10.667-10.667-10.667-6.399 0-10.666 4.267-10.666 10.667v10.667h-10.667c-6.399 0-10.667 4.267-10.667 10.667 0 6.399 4.267 10.667 10.667 10.667h10.667v10.666c0 6.399 4.267 10.667 10.666 10.667s10.667-4.267 10.667-10.667v-10.667h10.667c6.399 0 10.667-4.267 10.667-10.667-.001-6.399-4.268-10.666-10.667-10.666z"/></g></g></g><g/><g/><g/><g/><g/><g/><g/><g/><g/><g/><g/><g/><g/><g/><g/></svg>