<svg id="Layer_1" enable-background="new 0 0 511.999 511.999" viewBox="0 0 511.999 511.999" xmlns="http://www.w3.org/2000/svg"><g><g><path d="m244.316 277.244h21.244c12.748 0 25.494 4.25 36.116 14.872 4.25 4.25 10.622 4.25 14.872 0 12.748-10.622 27.618-14.872 44.614-14.872h8.498s6.373 0 8.498-2.124c2.124-2.124 4.25-6.373 4.25-8.498v-254.937c0-6.373-4.25-10.622-10.622-10.622h-233.694s0 0-2.124 0c0 0 0 0-2.124 0s-4.25 2.124-4.25 2.124l-127.47 127.469c-2.124 2.124-2.124 2.124-2.124 4.249v2.124 2.124 361.161c0 6.373 4.25 10.622 10.622 10.622h361.161c6.373 0 10.622-4.25 10.622-10.622v-63.734c0-2.124-2.124-6.373-4.25-8.498-2.122 0-6.372-2.124-8.496-2.124-19.12 2.124-38.24-2.124-53.112-14.872-4.25-4.25-10.622-2.124-14.872 0-10.622 8.498-23.37 14.872-36.116 14.872h-21.244c-29.742 0-53.112-23.37-53.112-53.112v-42.49c0-29.742 23.37-53.112 53.113-53.112zm-116.846-146.589h-.001-91.352l91.353-91.353z"/></g></g><g><g><path d="m364.468 322.867c12.8 0 19.012 7.085 21.333 10.667 5.323 8.215 8.771 9.844 14.448 7.715 7-2.625 7.375-6 6.885-9.848-2.133-17.067-19.2-29.866-42.667-29.866s-42.667 14.934-42.667 32 12.85 27.199 38.449 31.465l4.217.535c17.067 2.133 21.283 6.09 21.221 11.465-.078 6.745-10.554 12.001-23.353 12.001-12.801 0-18.959-6.876-21.333-10.667-3.908-6.238-6.399-10.667-10.667-10.667-6.399 0-11.834 5.582-10.667 10.667 3.582 16.291 19.2 29.866 42.667 29.866s42.667-14.934 42.667-32c0-17.067-12.526-27.435-38.127-31.701l-2.406-.298c-19.2-2.133-21.344-7.952-21.333-10.667.017-4.267 8.533-10.667 21.333-10.667z"/></g></g><g><g><path d="m469.186 322.867c12.8 0 19.012 7.085 21.333 10.667 5.323 8.215 8.771 9.844 14.448 7.715 7-2.625 7.375-6 6.885-9.848-2.133-17.067-19.2-29.866-42.667-29.866s-42.667 14.934-42.667 32 12.85 27.199 38.449 31.465l4.217.535c17.067 2.133 21.283 6.09 21.221 11.465-.078 6.745-10.554 12.001-23.353 12.001-12.801 0-18.959-6.876-21.333-10.667-3.908-6.238-6.399-10.667-10.667-10.667-6.399 0-11.834 5.582-10.667 10.667 3.582 16.291 19.2 29.866 42.667 29.866s42.667-14.934 42.667-32c0-17.067-12.526-27.435-38.127-31.701l-2.406-.298c-19.2-2.133-21.344-7.952-21.333-10.667.017-4.267 8.533-10.667 21.333-10.667z"/></g></g><g><g><path d="m286.804 364.348c-6.372 0-10.622 4.25-10.622 10.622 0 6.373-4.25 10.622-10.622 10.622h-21.244c-6.373 0-10.622-4.25-10.622-10.622v-42.49c-.001-6.372 4.249-10.622 10.622-10.622h21.244c6.373 0 10.622 4.25 10.622 10.622 0 6.373 4.25 10.622 10.622 10.622s10.622-4.25 10.622-10.622c0-16.996-14.872-31.867-31.867-31.867h-21.244c-16.996 0-31.867 14.872-31.867 31.867v42.49c0 16.996 14.872 31.867 31.867 31.867h21.244c16.996 0 31.867-14.872 31.867-31.867 0-6.373-4.25-10.622-10.622-10.622z"/></g></g><g/><g/><g/><g/><g/><g/><g/><g/><g/><g/><g/><g/><g/><g/><g/></svg>