<svg id="Layer_1" enable-background="new 0 0 512 512" viewBox="0 0 512 512" xmlns="http://www.w3.org/2000/svg"><g><g><g><path d="m462.934 375.467c-4.267-2.133-8.533-2.133-10.667 0-42.667 32-115.2 51.2-196.267 51.2-81.066 0-153.6-19.2-196.267-51.2-4.267-2.133-8.533-2.133-10.667 0-4.267 2.133-6.4 6.4-6.4 8.533v32c0 53.333 93.867 96 213.333 96s213.333-42.667 213.333-96v-32c.001-4.266-2.132-8.533-6.398-8.533z"/><path d="m462.934 160c-4.267-2.133-8.533-2.133-10.667 0-42.667 32-115.2 51.2-196.267 51.2-81.066 0-153.6-19.2-196.267-51.2-4.267-2.133-8.533-2.133-10.667 0-4.267 2.133-6.4 6.4-6.4 8.533v32c0 53.333 93.867 96 213.333 96s213.333-42.667 213.333-96v-32c.001-2.133-2.132-6.4-6.398-8.533z"/><path d="m256 192c119.467 0 213.333-42.667 213.333-96s-93.867-96-213.333-96-213.333 42.667-213.333 96 93.866 96 213.333 96z"/><path d="m462.934 266.667c-4.267-2.133-8.533-2.133-10.667 0-42.667 32-115.2 51.2-196.267 51.2-81.066 0-153.6-19.2-196.267-51.2-4.267-2.133-8.533-2.133-10.667 0-4.267 2.133-6.4 6.4-6.4 8.533v32c0 53.333 93.867 96 213.333 96s213.333-42.667 213.333-96v-32c.001-2.133-2.132-6.4-6.398-8.533z"/></g></g></g><g/><g/><g/><g/><g/><g/><g/><g/><g/><g/><g/><g/><g/><g/><g/></svg>