<svg id="Layer_1" enable-background="new 0 0 511.999 511.999" viewBox="0 0 511.999 511.999" xmlns="http://www.w3.org/2000/svg"><g><g><g><path d="m53.886 235.423h-31.913c-6.382 0-10.637 4.256-10.637 10.637v74.463h42.551v-85.1z"/><path d="m219.832 363.073c-10.637-2.127-23.403-8.51-38.295-14.893v59.57h148.926v-59.57c-14.893 10.637-31.912 17.02-44.678 17.02h-59.571v-2.127c-2.128 0-4.256 0-6.382 0z"/><path d="m224.086 341.799h2.127 57.442c19.147 0 42.551-14.893 61.698-38.295 8.51-8.51 14.893-19.148 19.147-29.785 10.637-23.403 17.02-46.805 17.02-74.463 0-68.081-57.443-134.033-61.698-138.288-2.127-2.127-6.382-4.256-10.637-2.127-4.256 2.127-6.382 4.256-8.51 8.51l-6.382 38.295c-10.637-29.785-29.785-70.207-63.825-102.12-4.256-4.256-8.51-4.256-12.766-2.127-4.256 2.127-6.382 6.382-4.256 12.766 8.51 29.785-2.127 76.59-10.637 112.758-2.127-17.02-8.51-34.041-17.02-38.295-4.256-2.127-6.382-2.127-10.637 0s-6.382 6.382-6.382 8.51c0 14.893-8.51 29.785-17.02 46.805-12.766 21.275-25.53 46.805-25.53 82.973 2.129 91.48 97.866 114.883 97.866 114.883z"/><path d="m11.335 341.799h148.925v63.825h-148.925z"/><path d="m360.247 320.523h76.59v-85.1h-27.657c-4.256 0-8.51 4.256-10.637 8.51-2.127 12.766-8.51 27.658-14.893 40.422-4.256 12.766-12.766 23.403-23.403 34.04 2.127.001 0 .001 0 2.128z"/><path d="m109.201 243.933c0-6.382-4.256-8.51-10.637-8.51h-23.403v85.1h70.207c-17.019-19.148-31.912-44.677-36.167-76.59z"/><path d="m436.837 511.999h53.188c6.382 0 10.637-4.256 10.637-10.637v-74.463h-63.825z"/><path d="m351.737 341.798h148.926v63.825h-148.926z"/><path d="m490.025 235.423h-31.912v85.1h42.551v-74.463c-.001-6.382-4.257-10.637-10.639-10.637z"/><path d="m96.435 426.899h148.926v85.1h-148.926z"/><path d="m11.335 501.362c0 6.382 4.256 10.637 10.637 10.637h53.188v-85.1h-63.825z"/><path d="m266.637 426.899h148.925v85.1h-148.925z"/></g></g></g><g/><g/><g/><g/><g/><g/><g/><g/><g/><g/><g/><g/><g/><g/><g/></svg>