<svg id="Layer_1" enable-background="new 0 0 512 512" viewBox="0 0 512 512" xmlns="http://www.w3.org/2000/svg"><g><g><g><path d="m181.137 405.172c6.392 0 10.655-4.263 10.655-10.655v-74.586h10.655c6.392 0 10.655-4.263 10.655-10.655s-4.263-10.655-10.655-10.655h-42.621c-6.392 0-10.655 4.263-10.655 10.655s4.263 10.655 10.655 10.655h10.655v74.586c.001 6.393 4.264 10.655 10.656 10.655z"/><path d="m372.928 383.861c-6.392 0-10.655 4.263-10.655 10.655 0 17.048-14.918 31.965-31.965 31.965-8.524 0-17.048-4.263-23.442-10.655-4.263-4.263-12.787-4.263-17.048 0-6.392 6.392-14.918 10.655-23.442 10.655-17.048 0-31.965-14.918-31.965-31.965 0-6.392-4.263-10.655-10.655-10.655s-10.655 4.263-10.655 10.655c0 17.048-14.918 31.965-31.965 31.965-8.524 0-17.048-4.263-23.442-10.655-4.263-4.263-12.787-4.263-17.048 0-12.786 14.918-36.227 14.918-46.882 0-4.263-4.263-12.787-4.263-17.048 0-6.392 6.392-14.918 10.655-23.442 10.655-17.048 0-31.965-14.918-31.965-31.965v-85.241c0-17.048 14.918-31.965 31.965-31.965 8.524 0 17.048 4.263 23.442 10.655 4.263 4.263 12.787 4.263 17.048 0 10.655-10.655 25.573-14.918 40.489-6.392 4.263 2.131 6.392 2.131 10.655 0s10.655-4.263 14.918-4.263h42.621c6.392 0 10.655 2.131 14.918 4.263 4.263 2.131 6.392 2.131 10.655 0s10.655-4.263 14.918-4.263h42.621c6.392 0 10.655 2.131 14.918 4.263 4.263 2.131 6.392 2.131 10.655 0s10.655-4.263 14.918-4.263h21.31c6.392 0 10.655 2.131 17.048 4.263 4.263 2.131 6.392 0 10.655-2.131 2.131-2.131 4.263-4.263 4.263-8.524v-259.985c4.26-6.393-.002-10.656-6.395-10.656h-234.413s0 0-2.131 0c0 0 0 0-2.131 0s-4.263 2.131-4.263 2.131l-127.862 127.862c-2.131 2.131-2.131 2.131-2.131 4.262v2.131 2.131 362.274c0 6.392 4.263 10.655 10.655 10.655h362.273c6.392 0 10.655-4.263 10.655-10.655v-106.552c0-6.393-4.262-10.655-10.655-10.655zm-245.065-347.356v91.634h-.001-91.633z"/><path d="m266.378 405.172c6.392 0 10.655-4.263 10.655-10.655v-74.586h10.655c6.392 0 10.655-4.263 10.655-10.655s-4.263-10.655-10.655-10.655h-42.621c-6.392 0-10.655 4.263-10.655 10.655s4.263 10.655 10.655 10.655h10.655v74.586c.001 6.393 4.264 10.655 10.656 10.655z"/><path d="m415.55 341.241c6.392 0 10.655-4.263 10.655-10.655 0-6.393-4.263-10.655-10.655-10.655s-10.655 4.263-10.655 10.655 4.263 10.655 10.655 10.655z"/><path d="m502.922 298.62c-6.392-2.131-10.655 2.131-12.787 8.524l-21.31 85.241c-2.131 6.392 2.131 10.655 8.524 12.787h2.131c4.263 0 8.524-4.263 10.655-8.524l21.31-85.241c2.132-6.392-2.13-10.655-8.523-12.787z"/><path d="m460.302 298.62c-6.392-2.131-10.655 2.131-12.786 8.524l-21.31 85.241c-2.131 6.392 2.131 10.655 8.524 12.787h2.131c4.263 0 8.524-4.263 10.655-8.524l21.31-85.241c2.131-6.392-2.132-10.655-8.524-12.787z"/><path d="m117.207 405.172c6.392 0 10.655-4.263 10.655-10.655v-85.241c0-6.392-4.263-10.655-10.655-10.655s-10.655 4.263-10.655 10.655v31.965h-42.62v-31.965c0-6.392-4.263-10.655-10.655-10.655s-10.655 4.263-10.655 10.655v85.241c0 6.392 4.263 10.655 10.655 10.655s10.655-4.263 10.655-10.655v-31.965h42.621v31.965c-.001 6.393 4.261 10.655 10.654 10.655z"/><path d="m415.55 362.551c-6.392 0-10.655 4.263-10.655 10.655s4.263 10.655 10.655 10.655 10.655-4.263 10.655-10.655-4.262-10.655-10.655-10.655z"/><path d="m351.62 298.62h-21.31c-6.392 0-10.655 4.263-10.655 10.655v85.241c0 6.392 4.263 10.655 10.655 10.655s10.655-4.263 10.655-10.655v-31.965h10.655c17.048 0 31.965-14.918 31.965-31.965s-14.918-31.966-31.965-31.966zm0 42.621h-10.655v-21.31h10.655c6.392 0 10.655 4.263 10.655 10.655s-4.263 10.655-10.655 10.655z"/></g></g></g><g/><g/><g/><g/><g/><g/><g/><g/><g/><g/><g/><g/><g/><g/><g/></svg>