<svg id="Layer_1" enable-background="new 0 0 512 512" viewBox="0 0 512 512" xmlns="http://www.w3.org/2000/svg"><g><g><g><path d="m376.719 424.364c-4.21-2.104-8.418-4.21-12.628-6.313-4.21-2.104-8.418-2.104-12.627 0-2.104 2.104-6.313 4.21-8.418 4.21-12.628 4.21-25.255 0-35.778-8.418-2.104-2.104-4.21-4.21-8.418-4.21-2.104 0-6.313 2.104-8.418 4.21-8.418 10.523-23.151 12.627-35.778 8.418-4.21-2.104-6.313-4.21-10.523-6.313-4.21-4.21-8.418-4.21-12.628 0-8.418 6.313-18.941 8.418-29.464 8.418-29.464 0-52.614-23.151-52.614-52.614 0-16.837 14.732-31.568 31.568-31.568 6.313 0 10.523-4.21 10.523-10.523v-21.045c0-16.837 14.732-31.568 31.568-31.568 10.523 0 23.151 6.313 27.359 16.837 2.104 4.21 6.313 6.313 8.418 6.313 4.21 0 8.418-2.104 8.418-6.313 6.313-10.523 16.837-16.837 27.359-16.837 8.418 0 14.732 4.21 18.941 6.313 4.21 2.104 8.418 2.104 12.627 0 2.104-2.104 6.313-4.21 8.418-4.21 8.418-4.21 18.941-2.104 27.359 2.104 4.21 2.104 6.313 2.104 10.523 0s6.313-6.313 6.313-8.418v-258.862c0-6.313-4.21-10.523-10.523-10.523h-231.5s0 0-2.104 0c0 0 0 0-2.104 0s-4.211 2.105-4.211 2.105l-126.273 126.274c-2.104 2.105-2.104 2.105-2.104 4.209v2.104 2.104 357.776c0 6.313 4.21 10.523 10.523 10.523h357.775c6.313 0 10.523-4.21 10.523-10.523v-65.241c6.315-2.106 4.211-6.315-2.102-8.419zm-244.129-292.535h-90.496l90.496-90.496z"/><path d="m292.536 306.509-31.568 84.182c-2.104 6.313 0 10.523 6.313 12.627s10.523 0 12.628-6.313l6.313-14.732h33.673l6.313 14.732c2.104 4.21 6.313 6.313 10.523 6.313h4.21c6.313-2.104 8.418-8.418 6.313-12.627l-35.777-84.182c-2.105-8.419-16.837-8.419-18.941 0zm0 56.823 8.418-23.151 8.418 23.151z"/><path d="m511.41 390.691-31.568-84.182c-2.104-8.418-16.837-8.418-18.941 0l-31.568 84.182c-2.104 6.313 0 10.523 6.313 12.627s10.523 0 12.627-6.313l6.313-14.732h33.673l6.313 14.732c2.104 4.21 6.313 6.313 10.523 6.313h4.21c.001.001 4.21-6.313 2.105-12.627zm-50.509-27.359 8.418-23.151 8.418 23.151z"/><path d="m216.772 310.717v63.137c0 6.313-4.21 10.523-10.523 10.523s-10.523-4.21-10.523-10.523-4.21-10.523-10.523-10.523-10.523 4.21-10.523 10.523c0 16.837 14.732 31.568 31.568 31.568s31.568-14.732 31.568-31.568v-63.137c0-6.313-4.21-10.523-10.523-10.523s-10.521 4.209-10.521 10.523z"/><path d="m420.915 300.195c-6.313-2.104-10.523 0-12.628 6.313l-21.045 58.927-21.045-58.927c-2.104-6.313-8.418-8.418-12.627-6.313-6.313 2.104-8.418 8.418-6.313 12.627l31.568 84.182c2.104 4.21 6.313 6.313 10.523 6.313s8.418-2.104 10.523-6.313l31.568-84.182c-2.107-4.209-6.315-10.523-10.524-12.627z"/></g></g></g><g/><g/><g/><g/><g/><g/><g/><g/><g/><g/><g/><g/><g/><g/><g/></svg>