<svg id="Layer_1" enable-background="new 0 0 512 512" viewBox="0 0 512 512" xmlns="http://www.w3.org/2000/svg"><g><g><path d="m42.601 279.468c12.801-4.267 25.6 0 34.134 8.533 2.133 2.133 4.267 4.267 8.533 4.267 2.133 0 6.399-2.133 8.533-4.267 8.533-8.533 21.333-12.801 34.134-8.533 12.8 4.267 21.333 17.067 21.333 29.866 0 6.399 4.267 10.667 10.666 10.667s10.666 2.133 17.067 4.267c2.133 0 4.267 2.133 6.399 2.133 2.133 0 4.267 0 6.399-2.133 6.399-4.267 12.801-4.267 19.2-4.267 4.267 0 8.533-2.133 10.666-6.399 8.536-21.334 32.002-36.268 59.735-36.268 17.067 0 31.999 6.399 44.8 14.934 4.267 4.267 10.667 4.267 14.934 0 10.666-10.668 23.466-14.935 36.266-14.935 6.399 0 10.667-4.267 10.667-10.666v-256c0-6.4-4.268-10.667-10.667-10.667h-234.666s0 0-2.133 0c0 0 0 0-2.133 0s-4.267 2.133-4.267 2.133l-128.001 128c-2.133 2.133-2.133 2.133-2.133 4.267v2.133 2.133 362.667c0 6.399 4.267 10.667 10.666 10.667h362.666c6.399 0 10.667-4.267 10.667-10.667v-64c-4.266-8.534-8.533-12.8-14.932-12.8-12.801 0-25.6-4.267-36.267-14.934-4.267-4.267-10.667-4.267-14.934 0-12.801 10.667-27.733 14.934-44.8 14.934-19.2 0-38.4-6.399-49.066-19.2-2.133-2.133-6.399-4.267-8.533-4.267-4.267 0-6.399 2.133-8.533 6.399l-21.333 42.667c-8.533 14.934-27.733 21.333-42.667 14.934-10.666-6.399-17.067-17.067-17.067-27.733 0-6.399-4.267-10.667-10.666-10.667-8.533 0-17.067-4.267-23.467-10.666-4.267-4.267-12.801-4.267-17.067 0-6.399 6.399-14.934 10.666-23.467 10.666-17.067 0-31.999-14.934-31.999-31.999v-85.333c0-12.8 8.533-25.6 21.333-29.866zm83.199-245.334v91.733h-91.732z"/></g></g><g><g><path d="m119.534 297.666c-4.267-2.133-8.914-.355-12.8 4.267l-23.467 32-23.467-32c-3.055-4.372-8.648-5.247-12.801-4.267-4.643 1.096-6.399 6.399-6.399 10.667v85.333c0 6.399 4.267 10.667 10.667 10.667s10.667-4.267 10.667-10.667v-53.334l12.799 17.068c4.267 6.399 12.801 6.399 17.067 0l12.8-17.067v53.334c0 6.4 4.266 10.666 10.666 10.666 6.399 0 10.667-4.267 10.667-10.667v-85.333c0-4.267-2.133-8.533-6.399-10.667z"/></g></g><g><g><path d="m277.4 316.866c12.8 0 19.012 7.085 21.333 10.667 5.323 8.215 8.771 9.844 14.448 7.715 7-2.625 7.375-6 6.885-9.848-2.133-17.067-19.2-29.866-42.667-29.866s-42.667 14.934-42.667 32 12.85 27.199 38.449 31.465l4.217.535c17.067 2.133 21.283 6.09 21.221 11.465-.078 6.746-10.553 12.001-23.353 12.001-12.801 0-18.959-6.876-21.333-10.667-3.908-6.238-6.399-10.667-10.667-10.667-6.399 0-11.834 5.582-10.667 10.667 3.582 16.291 19.2 29.866 42.667 29.866s42.667-14.934 42.667-32c0-17.067-12.527-27.435-38.127-31.701l-2.406-.298c-19.2-2.133-21.344-7.952-21.333-10.667.017-4.267 8.533-10.667 21.333-10.667z"/></g></g><g><g><path d="m499.266 383h-32v-74.667c0-6.399-4.267-10.667-10.667-10.667s-10.667 4.267-10.667 10.667v85.333c0 6.399 4.267 10.667 10.667 10.667h42.667c6.399 0 10.667-4.267 10.667-10.667-.001-6.399-4.267-10.666-10.667-10.666z"/></g></g><g><g><path d="m422.467 385.132c2.133-4.267 2.267-8.533 2.267-12.8l-.134-42.666h-.001c0-17.067-14.934-32-32-32h-21.333c-17.067 0-32 14.934-32 32v42.667c0 17.067 14.934 32 32 32h21.333c4.267 0 8.533-2.133 12.801-4.267 2.133 2.133 4.767 4.267 9.033 4.267 2.133 0 5.9-2.134 8.034-4.267 4.267-4.267 4.267-10.666 0-14.934zm-19.202-17.065-2.132-2.133c-4.267-4.267-10.667-4.267-14.934 0s-4.267 10.667 0 14.934l2.133 2.133h-17.067c-6.399 0-10.667-4.267-10.667-10.667v-42.667c0-6.399 4.267-10.667 10.667-10.667h21.333c6.399 0 10.667 4.267 10.667 10.667v38.4h.001z"/></g></g><g><g><path d="m204.866 340.335c-3.87-2.789-11.809-1.022-14.934 4.267l-12.801 23.467-12.801-23.467c-2.133-4.267-8.701-6.848-14.934-4.267-4.408 1.825-7.028 8.665-4.267 14.934l19.2 38.4-19.2 38.4c-2.353 4.524.859 10.559 7.303 12.556 4.438 1.375 9.89 2.823 14.034-4.023l42.667-85.333c2.133-4.267.629-11.405-4.267-14.934z"/></g></g><g/><g/><g/><g/><g/><g/><g/><g/><g/><g/><g/><g/><g/><g/><g/></svg>