<svg id="Layer_1" enable-background="new 0 0 512 512" viewBox="0 0 512 512" xmlns="http://www.w3.org/2000/svg"><g><g><g><path d="m377.601 422.399c-4.267-2.133-6.399-2.133-10.667 0-21.333 12.8-46.933-4.267-46.933-27.733 0-6.399-4.267-10.667-10.667-10.667-6.399 0-10.667 4.267-10.667 10.667 0 17.067-14.934 31.999-31.999 31.999s-31.999-14.934-31.999-31.999v-85.333c0-17.067 14.934-31.999 31.999-31.999h21.333c10.667 0 21.333 2.133 29.866 8.533 4.267 2.133 8.533 2.133 12.801 0 4.267-4.267 10.667-8.533 21.333-8.533 6.399 0 10.667 2.133 14.934 4.267 4.267 2.133 6.399 2.133 10.667 0 4.267-2.133 6.399-6.399 6.399-8.533v-262.4c0-6.401-4.267-10.668-10.666-10.668h-234.667s0 0-2.133 0c0 0 0 0-2.133 0s-4.267 2.133-4.267 2.133l-128.001 128c-2.134 2.134-2.134 2.134-2.134 4.267v2.133 2.133 362.667c0 6.4 4.267 10.667 10.667 10.667h362.666c6.399 0 10.667-4.267 10.667-10.666v-70.399c0-4.27-2.133-8.536-6.399-8.536zm-249.6-294.4h-.001-91.732l91.733-91.733z"/><path d="m480.001 298.665h-21.333c-6.399 0-10.667 4.267-10.667 10.667v85.333c0 6.399 4.267 10.667 10.667 10.667 6.399 0 10.667-4.267 10.667-10.667v-31.999h10.667c17.067 0 31.999-14.934 31.999-31.999-.001-17.068-14.935-32.002-32-32.002zm0 42.667h-10.667v-21.333h10.667c6.399 0 10.667 4.267 10.667 10.667s-4.268 10.666-10.667 10.666z"/><path d="m416.001 298.665c-6.399 0-10.667 4.267-10.667 10.667v31.999h-42.667v-31.999c0-6.399-4.267-10.667-10.666-10.667s-10.667 4.267-10.667 10.667v85.333c0 6.399 4.267 10.667 10.667 10.667 6.399 0 10.666-4.267 10.666-10.667v-31.999h42.667v31.999c0 6.399 4.267 10.667 10.667 10.667 6.399 0 10.667-4.267 10.667-10.667v-85.333c-.001-6.4-4.268-10.667-10.667-10.667z"/><path d="m288.001 298.665h-21.333c-6.399 0-10.666 4.267-10.666 10.667v85.333c0 6.399 4.267 10.667 10.666 10.667s10.667-4.267 10.667-10.667v-31.999h10.667c17.067 0 31.999-14.934 31.999-31.999-.001-17.068-14.935-32.002-32-32.002zm0 42.667h-10.667v-21.333h10.667c6.399 0 10.667 4.267 10.667 10.667s-4.268 10.666-10.667 10.666z"/></g></g></g><g/><g/><g/><g/><g/><g/><g/><g/><g/><g/><g/><g/><g/><g/><g/></svg>