<svg id="Layer_1" enable-background="new 0 0 512 512" viewBox="0 0 512 512" xmlns="http://www.w3.org/2000/svg"><g><g><path d="m511.445 371.076c-2.131-4.263-10.655-29.834-74.586-29.834-53.276 0-80.979 42.621-104.42 83.11-21.31 34.097-42.621 66.061-76.716 66.061-66.062 0-89.503-40.489-93.765-63.931h19.179c17.048 0 31.965-14.918 31.965-31.965v-31.965c0-29.834 14.918-59.668 38.358-76.716 29.834-21.31 46.882-57.537 46.882-93.765v-53.276c0-17.048-14.918-31.965-31.965-31.965h-31.965v-95.897c0-6.392-4.263-10.655-10.655-10.655s-10.655 4.263-10.655 10.655v95.896h-127.861v-95.896c0-6.392-4.263-10.655-10.655-10.655s-10.655 4.263-10.655 10.655v95.896h-31.966c-17.047 0-31.965 14.918-31.965 31.965v53.276c0 36.227 17.048 72.455 46.882 93.765 23.442 17.048 38.358 46.882 38.358 76.716v31.965c0 17.048 14.918 31.965 31.965 31.965h21.311c6.392 36.227 38.358 85.241 117.207 85.241 46.882 0 70.323-38.358 95.896-76.716 23.442-36.227 44.752-72.455 85.241-72.455 44.752 0 53.276 12.786 53.276 12.786 2.131 6.392 6.392 8.524 12.787 8.524 6.391-2.131 10.654-8.524 8.522-12.785zm-404.893-136.386c0-23.442 19.179-42.621 42.621-42.621s42.621 19.179 42.621 42.621-19.179 42.621-42.621 42.621-42.621-19.179-42.621-42.621z"/></g></g><g/><g/><g/><g/><g/><g/><g/><g/><g/><g/><g/><g/><g/><g/><g/></svg>