<svg id="Layer_1" enable-background="new 0 0 512 512" viewBox="0 0 512 512" xmlns="http://www.w3.org/2000/svg"><g><g><g><path d="m204.801 85.333c-6.399-2.133-10.667 2.133-12.801 8.533l-42.667 170.666c-2.133 6.399 2.133 10.667 8.533 12.801h2.134c4.267 0 8.533-4.267 10.667-8.533l42.667-170.666c2.134-6.401-2.132-10.667-8.533-12.801z"/><path d="m123.734 108.8c-4.267-4.267-10.666-2.133-14.934 2.133l-42.667 64c-2.133 4.267-2.133 8.533 0 12.801l42.667 64c2.133 2.133 6.399 4.267 8.533 4.267s4.267 0 6.399-2.133c4.267-4.267 6.399-10.666 2.133-14.934l-38.4-57.6 38.4-57.6c4.27-6.401 2.137-12.801-2.131-14.934z"/><path d="m296.534 174.933-42.667-64c-4.267-4.267-10.667-6.399-14.934-2.133-4.267 4.267-6.399 10.667-2.133 14.934l38.4 57.6-38.4 57.6c-4.267 4.267-2.133 10.666 2.133 14.934 2.133 2.133 4.267 2.133 6.399 2.133 4.267 0 6.399-2.133 8.533-4.267l42.667-64c2.136-4.267 2.136-8.534.002-12.801z"/><path d="m499.201 441.6-164.267-164.267c17.067-27.733 27.733-59.733 27.733-95.999.001-100.267-81.066-181.334-181.333-181.334s-181.333 81.067-181.333 181.333 81.067 181.333 181.333 181.333c36.267 0 68.267-10.666 96-27.733l164.266 164.266c8.533 8.533 17.067 12.801 29.866 12.801 23.467 0 40.533-19.2 40.533-40.533.001-10.667-4.265-21.334-12.798-29.867zm-317.866-100.267c-87.467 0-159.999-72.533-159.999-159.999s72.532-160.001 159.999-160.001 159.999 72.533 159.999 160-72.533 160-159.999 160z"/></g></g></g><g/><g/><g/><g/><g/><g/><g/><g/><g/><g/><g/><g/><g/><g/><g/></svg>