<svg id="Layer_1" enable-background="new 0 0 512 512" viewBox="0 0 512 512" xmlns="http://www.w3.org/2000/svg"><g><g><g><path d="m375.675 388.265c-6.399 0-10.667 2.133-10.667 8.533l-2.133 4.267c-4.267 12.801-14.934 23.467-27.733 23.467h-2.133c-8.533 0-17.067-4.267-23.467-10.667-2.133-2.133-4.267-4.267-8.533-4.267s-6.399 2.133-8.533 4.267c-6.399 8.533-17.067 10.667-25.6 10.667-12.801-2.133-25.6-10.667-27.733-23.467l-2.133-4.267c-2.133-8.533-19.2-8.533-21.333 0l-2.133 4.267c-4.267 12.801-14.934 23.467-27.733 23.467h-2.133c-8.533 0-17.067-4.267-23.467-10.667-2.133-2.133-4.267-4.267-8.533-4.267s-6.399 2.133-8.533 4.267c-6.399 8.533-17.067 10.667-25.6 10.667-12.801-2.133-25.6-10.667-27.733-23.467l-21.333-85.333c-4.267-17.067 6.399-34.134 23.467-38.4 12.801-2.133 25.6 2.133 31.999 10.667 4.267 4.267 8.533 4.267 12.801 2.133 8.533-4.267 21.333-4.267 29.866 0 4.267 2.133 10.666 2.133 12.801-2.133 8.533-8.533 21.333-12.801 31.999-10.667 2.133 0 4.267 2.133 8.533 4.267 4.267 2.133 6.399 2.133 10.666 0 2.133-2.133 6.399-2.133 8.533-4.267 12.801-2.133 25.6 2.133 31.999 10.667 4.267 4.267 8.533 4.267 12.8 2.133 8.533-4.267 21.333-4.267 29.866 0 4.267 2.133 10.666 2.133 12.8-2.133 8.533-8.533 21.333-12.801 31.999-10.667 2.133 0 4.267 2.133 8.533 4.267 4.267 2.133 6.399 2.133 10.667 0 4.267-2.133 6.399-6.399 6.399-8.533v-262.4c-.001-6.399-4.268-10.666-10.667-10.666h-234.664s0 0-2.133 0c0 0 0 0-2.133 0s-4.267 2.133-4.267 2.133l-128.001 128c-2.133 2.133-2.133 2.133-2.133 4.267v2.133 2.133 362.667c0 6.399 4.267 10.667 10.667 10.667h362.666c6.399 0 10.667-4.267 10.667-10.667v-102.401c-.001-4.268-4.268-8.534-8.534-10.667zm-247.467-351.999v91.733h-91.732z"/><path d="m205.009 298.665c-6.399-2.133-10.667 2.133-12.801 8.533l-12.801 55.467-19.2-44.8c-4.267-8.533-17.067-8.533-19.2 0l-19.2 44.8-12.801-55.467c-2.133-6.399-6.399-8.533-12.801-8.533-6.399 2.133-8.533 6.399-8.533 12.801l21.333 85.333c2.133 4.267 4.267 8.533 8.533 8.533 4.267 0 8.533-2.133 10.667-6.399l21.333-51.199 21.333 51.199c2.133 4.267 6.399 6.399 10.667 6.399 4.267 0 8.533-4.267 8.533-8.533l21.333-85.333c4.271-6.401.004-10.668-6.395-12.801z"/><path d="m503.675 298.665c-6.399-2.133-10.667 2.133-12.8 8.533l-12.801 55.467-19.2-44.8c-4.267-8.533-17.067-8.533-19.2 0l-19.2 44.8-12.801-55.467c-2.133-6.399-6.399-8.533-12.8-8.533-6.399 2.133-8.533 6.399-8.533 12.801l21.333 85.333c2.133 4.267 4.267 8.533 8.533 8.533 4.267 0 8.533-2.133 10.667-6.399l21.333-51.199 21.333 51.199c2.133 4.267 6.399 6.399 10.667 6.399 4.267 0 8.533-4.267 8.533-8.533l21.333-85.333c4.269-6.401.003-10.668-6.397-12.801z"/><path d="m341.542 307.198-12.801 55.467-19.2-44.8c-4.267-8.533-17.067-8.533-19.2 0l-19.2 44.8-12.801-55.467c-2.133-6.399-6.399-8.533-12.801-8.533-6.399 2.133-8.533 6.399-8.533 12.801l21.333 85.333c2.133 4.267 4.267 8.533 8.533 8.533 4.267 0 8.533-2.133 10.667-6.399l21.333-51.199 21.333 51.199c2.133 4.267 6.399 6.399 10.667 6.399s8.533-4.267 8.533-8.533l21.333-85.333c4.269-6.4.002-10.667-6.397-12.801-6.398-2.133-10.666 2.133-12.799 8.533z"/></g></g></g><g/><g/><g/><g/><g/><g/><g/><g/><g/><g/><g/><g/><g/><g/><g/></svg>