<svg id="Layer_1" enable-background="new 0 0 512 512" viewBox="0 0 512 512" xmlns="http://www.w3.org/2000/svg"><g><g><g><path d="m437.333 362.667c-6.4 0-10.667 4.267-10.667 10.667v64c0 17.066-14.934 32-32 32h-341.333c-17.066 0-32-14.934-32-32v-309.334h405.333v74.667c0 6.4 4.267 10.667 10.667 10.667s10.667-4.267 10.667-10.667v-128c0-29.867-23.467-53.333-53.333-53.333h-341.334c-29.866-.001-53.333 23.466-53.333 53.333v362.667c0 29.867 23.467 53.333 53.333 53.333h341.333c29.867 0 53.333-23.467 53.333-53.333v-64c.001-6.4-4.266-10.667-10.666-10.667zm-298.666-298.667c6.4 0 10.667 4.267 10.667 10.667s-4.267 10.667-10.667 10.667-10.667-4.267-10.667-10.667 4.267-10.667 10.667-10.667zm-42.667 0c6.4 0 10.667 4.267 10.667 10.667s-4.267 10.667-10.667 10.667-10.667-4.267-10.667-10.667 4.267-10.667 10.667-10.667zm-42.667 0c6.4 0 10.667 4.267 10.667 10.667s-4.267 10.667-10.667 10.667-10.667-4.267-10.667-10.667c.001-6.4 4.268-10.667 10.667-10.667z"/><path d="m315.733 236.8c-4.267-4.267-10.667-2.133-14.934 2.133l-23.467 32-23.467-32c-4.267-4.267-10.667-6.4-14.934-2.133s-6.4 10.667-2.133 14.934l27.733 36.267-27.733 36.267c-4.267 4.267-2.133 10.667 2.133 14.934 2.133 2.133 4.267 2.133 6.4 2.133 4.267 0 6.4-2.133 8.533-4.267l23.467-32 23.467 32c2.133 2.133 4.267 4.267 8.533 4.267 2.133 0 4.267 0 6.4-2.133 4.267-4.267 6.4-10.667 2.133-14.934l-27.733-36.267 27.733-36.267c4.269-4.267 2.136-12.8-2.131-14.934z"/><path d="m501.333 320h-32v-74.667c0-6.4-4.267-10.667-10.667-10.667s-10.667 4.267-10.667 10.667v85.333c0 6.4 4.267 10.667 10.667 10.667h42.667c6.4 0 10.667-4.267 10.667-10.667 0-6.399-4.267-10.666-10.667-10.666z"/><path d="m416 341.333c6.4 0 10.667-4.267 10.667-10.667v-85.333c0-4.267-2.133-8.533-6.4-10.667-4.267-2.133-8.533 0-12.8 4.267l-23.467 32-23.467-32c-2.133-4.267-8.533-4.267-12.8-4.267-4.267 2.133-6.4 6.4-6.4 10.667v85.333c0 6.4 4.267 10.667 10.667 10.667s10.667-4.267 10.667-10.667v-53.333l12.8 17.066c4.267 6.4 12.8 6.4 17.066 0l12.8-17.066v53.333c0 6.401 4.267 10.667 10.667 10.667z"/></g></g></g><g/><g/><g/><g/><g/><g/><g/><g/><g/><g/><g/><g/><g/><g/><g/></svg>