<svg id="Layer_1" enable-background="new 0 0 512.001 512.001" viewBox="0 0 512.001 512.001" xmlns="http://www.w3.org/2000/svg"><g><g><g><path d="m315.733 300.799c-4.267-4.267-10.667-2.133-14.934 2.133l-23.466 32.001-23.467-31.999c-4.267-4.267-10.667-6.399-14.934-2.133-4.267 4.267-6.399 10.666-2.133 14.934l27.733 36.265-27.733 36.267c-4.267 4.267-2.133 10.667 2.133 14.934 2.133 2.133 4.267 2.133 6.399 2.133 4.267 0 6.399-2.133 8.533-4.267l23.467-31.999 23.467 31.999c2.133 2.133 4.267 4.267 8.533 4.267 2.133 0 4.267 0 6.399-2.133 4.267-4.267 6.399-10.667 2.133-14.934l-27.732-36.267 27.733-36.267c4.269-4.268 2.136-12.801-2.131-14.934z"/><path d="m377.6 422.398c-4.267-2.133-6.399-2.133-10.667 0-10.667 6.399-21.333 6.399-31.999 0-4.267-2.133-6.399-2.133-10.667 0-14.934 8.533-29.866 4.267-40.533-6.399-2.133-2.133-4.267-4.267-8.533-4.267s-6.399 2.133-8.533 4.267c-10.667 12.8-29.866 14.934-42.667 4.267-14.934-10.667-17.067-29.866-6.399-44.8l12.801-17.067c2.133-4.267 2.133-8.533 0-12.8l-12.801-17.067c-10.666-14.934-8.533-34.134 6.399-44.8 12.801-10.666 32-8.533 42.667 4.267 2.133 2.133 4.267 4.267 8.533 4.267 2.133 0 6.399-2.133 8.533-4.267 10.666-10.667 27.733-14.934 40.533-6.399 4.267 2.133 8.533 0 12.801 0 2.133 0 2.133-2.133 4.267-2.133 8.533-2.133 17.067-2.133 25.6 2.133 4.267 2.133 6.399 2.133 10.667 0 4.267-2.133 6.399-6.399 6.399-8.533v-262.4c0-6.399-4.267-10.667-10.667-10.667h-234.666s0 0-2.133 0c0 0 0 0-2.133 0s-4.267 2.133-4.267 2.133l-128 128c-2.135 2.135-2.135 2.135-2.135 4.268v2.133 2.133 362.667c0 6.399 4.267 10.667 10.667 10.667h362.666c6.399 0 10.667-4.267 10.667-10.667v-70.399c0-4.271-2.134-6.403-6.4-8.537zm-249.6-294.4h-91.733l91.733-91.733z"/><path d="m420.267 298.664c-4.267-2.133-8.533 0-12.8 4.267l-23.467 32-23.467-31.999c-2.133-4.267-8.533-4.267-12.8-4.267-4.267 2.133-6.399 6.399-6.399 10.667v85.333c0 6.399 4.267 10.667 10.667 10.667 6.399 0 10.666-4.267 10.666-10.667v-53.335l12.8 17.067c4.267 6.399 12.801 6.399 17.067 0l12.8-17.067v53.333c0 6.399 4.267 10.667 10.667 10.667 6.399 0 10.667-4.267 10.667-10.667v-85.333c-.002-4.264-2.135-8.531-6.401-10.666z"/><path d="m501.333 383.998h-31.999v-74.666c0-6.399-4.267-10.667-10.667-10.667-6.399 0-10.667 4.267-10.667 10.667v85.333c0 6.399 4.267 10.667 10.667 10.667h42.667c6.399 0 10.667-4.267 10.667-10.667-.001-6.4-4.268-10.667-10.668-10.667z"/></g></g></g><g/><g/><g/><g/><g/><g/><g/><g/><g/><g/><g/><g/><g/><g/><g/></svg>