<?xml version="1.0" encoding="utf-8"?>
<!-- Generator: Adobe Illustrator 25.2.0, SVG Export Plug-In . SVG Version: 6.00 Build 0)  -->
<svg version="1.1" id="Camada_1" xmlns="http://www.w3.org/2000/svg" xmlns:xlink="http://www.w3.org/1999/xlink" x="0px" y="0px"
	 viewBox="0 0 24 24" style="enable-background:new 0 0 24 24;" xml:space="preserve">
<path d="M15,12.6c-0.8,0-1.4,0.7-1.4,1.5c0,0.8,0.6,1.4,1.4,1.4c0.8,0,1.4-0.7,1.4-1.5c0,0,0,0,0,0C16.4,13.2,15.8,12.6,15,12.6z
	 M19.7,17c0-0.1-0.1-0.3-0.1-0.4c0.1,0,0.2-0.1,0.3-0.1c1.8-0.7,2.9-1.8,2.9-2.8c0-1-1.1-1.9-2.8-2.4c-0.2-0.1-0.3-0.1-0.5-0.1
	c0-0.1,0-0.2,0.1-0.4c0.3-1.9,0.1-3.5-0.8-3.9c-0.8-0.4-2.1,0.1-3.4,1.4c-0.1,0.1-0.3,0.3-0.4,0.4c-0.1-0.1-0.2-0.2-0.3-0.2
	c-1.4-1.2-2.8-1.7-3.7-1.1c-0.8,0.5-1,2-0.6,3.8c0,0.2,0.1,0.4,0.1,0.5c-0.2,0.1-0.4,0.1-0.6,0.2c-1.6,0.7-2.7,1.7-2.6,2.6
	c0,1,1.2,2,2.9,2.5c0.1,0,0.3,0.1,0.4,0.1c0,0.2-0.1,0.4-0.1,0.6c-0.3,1.8,0,3.2,0.8,3.6c0.8,0.5,2.2-0.1,3.6-1.4
	c0.1-0.1,0.2-0.2,0.3-0.3c0.1,0.1,0.3,0.3,0.4,0.4c1.3,1.1,2.6,1.5,3.4,1C19.9,20.3,20.1,18.8,19.7,17L19.7,17z M11.4,7.8
	c0.5-0.3,1.7,0,2.9,1.1c0.1,0.1,0.2,0.1,0.2,0.2c-0.5,0.6-0.9,1.2-1.3,1.8c-0.7,0.1-1.4,0.2-2.1,0.4c0-0.2-0.1-0.3-0.1-0.5l0,0
	C10.7,9.3,10.9,8.2,11.4,7.8z M11.9,13.4c-0.2-0.5-0.4-0.9-0.5-1.4c0.4-0.1,0.9-0.2,1.4-0.3c-0.2,0.3-0.3,0.6-0.5,0.8
	C12.1,12.8,12,13.1,11.9,13.4z M10.4,16.3c-0.7-0.2-1.3-0.5-1.8-0.9C8.2,15.1,8,14.8,8,14.4c0-0.6,0.8-1.4,2.2-2
	c0.2-0.1,0.4-0.1,0.5-0.2c0.2,0.7,0.5,1.4,0.8,2c-0.3,0.7-0.5,1.4-0.7,2.1C10.6,16.3,10.5,16.3,10.4,16.3z M18.2,13.1
	c-0.1-0.3-0.3-0.5-0.5-0.8c-0.2-0.3-0.3-0.5-0.5-0.8c0.5,0,1,0.1,1.4,0.2C18.5,12.1,18.4,12.6,18.2,13.1z M15.8,8.8
	c1.1-1.1,2.2-1.6,2.7-1.3c0.5,0.3,0.8,1.5,0.5,3.2c0,0.1,0,0.2-0.1,0.3c-0.7-0.1-1.4-0.2-2.1-0.2c-0.4-0.6-0.9-1.1-1.3-1.6
	C15.5,9,15.6,8.9,15.8,8.8z M15,9.6c0.3,0.4,0.6,0.7,0.9,1.1c-0.6,0-1.2,0-1.8,0.1C14.4,10.4,14.7,10,15,9.6z M11.9,15
	c0.1,0.3,0.3,0.5,0.5,0.8c0.2,0.3,0.3,0.5,0.5,0.8c-0.5,0-1-0.1-1.4-0.2C11.5,16,11.7,15.5,11.9,15z M14.4,19.3
	c-0.5,0.5-1.1,0.9-1.7,1.2l0,0c-0.3,0.2-0.7,0.2-1.1,0.1c-0.5-0.3-0.7-1.4-0.5-2.9c0-0.2,0.1-0.4,0.1-0.5c0.7,0.1,1.4,0.2,2.1,0.2
	c0.4,0.6,0.9,1.1,1.4,1.6C14.6,19.1,14.5,19.2,14.4,19.3z M15.2,18.5c-0.3-0.3-0.6-0.7-1-1.1c0.3,0,0.6,0,0.9,0c0.3,0,0.6,0,0.9-0.1
	C15.8,17.7,15.5,18.1,15.2,18.5L15.2,18.5z M17.2,15.2c-0.2,0.4-0.5,0.9-0.7,1.3c-0.5,0.1-0.9,0.1-1.4,0.1c-0.5,0-1,0-1.4,0
	c-0.3-0.4-0.5-0.8-0.8-1.2c-0.2-0.4-0.5-0.8-0.7-1.3c0.2-0.5,0.4-0.9,0.6-1.3l0,0c0.2-0.4,0.5-0.9,0.7-1.3c0.5-0.1,0.9-0.1,1.4-0.1
	c0.5,0,1,0,1.4,0c0.3,0.4,0.5,0.8,0.8,1.2c0.2,0.4,0.5,0.8,0.7,1.3C17.7,14.4,17.5,14.8,17.2,15.2L17.2,15.2z M19.8,11.9
	c1.4,0.4,2.3,1.2,2.3,1.7c0,0.6-0.9,1.5-2.4,2.1l0,0c-0.1,0-0.2,0.1-0.3,0.1c-0.2-0.7-0.5-1.4-0.8-2c0.3-0.7,0.5-1.4,0.7-2.1
	C19.5,11.8,19.6,11.9,19.8,11.9z M18.2,14.7c0.2,0.5,0.4,0.9,0.5,1.4c-0.5,0.1-1,0.2-1.4,0.3c0.2-0.3,0.3-0.6,0.5-0.8
	C18,15.3,18.1,15,18.2,14.7z M18.7,20.3c-0.5,0.3-1.5,0-2.7-1c-0.1-0.1-0.3-0.2-0.4-0.4c0.5-0.6,0.9-1.2,1.3-1.8
	c0.7-0.1,1.4-0.2,2.1-0.4c0,0.1,0.1,0.3,0.1,0.4l0,0c0.2,0.7,0.2,1.4,0.1,2.1C19.2,19.7,19,20,18.7,20.3z"/>
<path d="M20.9,17c-0.3,0-0.5,0.2-0.5,0.5v3c0,0.8-0.7,1.5-1.5,1.5H2.6c-0.8,0-1.5-0.7-1.5-1.5V6h19.3l0,4.2c0,0.3,0.2,0.5,0.5,0.5
	c0.3,0,0.5-0.2,0.5-0.5l0-6.7c0-1.4-1.1-2.5-2.5-2.5H2.6C1.1,1.1,0,2.2,0,3.5v16.9c0,1.4,1.1,2.5,2.5,2.5h16.3
	c1.4,0,2.5-1.1,2.5-2.5v-3C21.4,17.2,21.2,17,20.9,17L20.9,17z M6.6,3.1c0.3,0,0.5,0.2,0.5,0.5S6.9,4,6.6,4S6.1,3.8,6.1,3.5
	S6.3,3.1,6.6,3.1z M4.6,3.1c0.3,0,0.5,0.2,0.5,0.5S4.9,4,4.6,4S4.1,3.8,4.1,3.5S4.3,3.1,4.6,3.1z M2.6,3.1c0.3,0,0.5,0.2,0.5,0.5
	S2.9,4,2.6,4S2.1,3.8,2.1,3.5C2.1,3.3,2.3,3.1,2.6,3.1z"/>
</svg>
