<?xml version="1.0" encoding="utf-8"?>
<!-- Generator: Adobe Illustrator 25.2.0, SVG Export Plug-In . SVG Version: 6.00 Build 0)  -->
<svg version="1.1" id="Layer_1" xmlns="http://www.w3.org/2000/svg" xmlns:xlink="http://www.w3.org/1999/xlink" x="0px" y="0px"
	 viewBox="0 0 512 512" style="enable-background:new 0 0 512 512;" xml:space="preserve">
<style type="text/css">
	.st0{display:none;}
	.st1{fill:#231F20;}
</style>
<g>
	<g>
		<g>
			<path class="st0" d="M630.4,0H225.1c-29.9,0-53.3,23.5-53.3,53.3v405.3c0,29.9,23.5,53.3,53.3,53.3h405.3
				c29.9,0,53.3-23.5,53.3-53.3V53.3C683.7,23.5,660.3,0,630.4,0L630.4,0z M310.4,42.7c6.4,0,10.7,4.3,10.7,10.7S316.8,64,310.4,64
				s-10.7-4.3-10.7-10.7S304,42.7,310.4,42.7z M267.7,42.7c6.4,0,10.7,4.3,10.7,10.7S274.1,64,267.7,64S257,59.7,257,53.3
				S261.3,42.7,267.7,42.7z M225.1,42.7c6.4,0,10.7,4.3,10.7,10.7S231.5,64,225.1,64s-10.7-4.3-10.7-10.7S218.7,42.7,225.1,42.7z
				 M662.4,458.7c0,17.1-14.9,32-32,32H225.1c-17.1,0-32-14.9-32-32v-352h469.3V458.7L662.4,458.7z"/>
		</g>
	</g>
</g>
<path class="st1" d="M384.7,48.4l-77.2,118.3l61.8-126.9L133,41L10.6,258.8c48.8-0.4,97.7-0.9,146.5-1.3
	c10.7-24.7,26-48.8,48.8-92.5c46.1,0.8,63.3,0.2,101.5,1.6c20.1,34.4,30.8,58,48.6,89.4c-22.5,41.2-29.8,54-48.8,92.5
	c-21.6,0.8-78.6-0.9-100.2-0.1c-5.5,16.6-51.5,105.8-61.8,127c75.6-0.4,151.1-0.8,226.6-1.2c3.2,0-67.8-125.7-64.6-125.7
	c1.7-3,77.7,119.7,79.4,116.7C425.8,395.7,464.9,326,504,256.4L384.7,48.4z"/>
<polygon class="st1" points="0.9,281.7 103.5,281.7 50.2,374 "/>
<polygon class="st1" points="91.9,367.5 171.3,365.3 125.8,290.5 "/>
<polygon class="st1" points="146.3,412.7 103.5,414.6 124.9,460.4 "/>
<polygon class="st1" points="32.1,394 57.1,422.1 17,436.6 "/>
</svg>
