<?xml version="1.0" encoding="utf-8"?>
<!-- Generator: Adobe Illustrator 25.0.1, SVG Export Plug-In . SVG Version: 6.00 Build 0)  -->
<svg version="1.1" id="Camada_1" xmlns="http://www.w3.org/2000/svg" xmlns:xlink="http://www.w3.org/1999/xlink" x="0px" y="0px"
	 viewBox="0 0 595.3 841.9" style="enable-background:new 0 0 595.3 841.9;" xml:space="preserve">
<style type="text/css">
	.st0{fill:none;stroke:#000000;stroke-width:40;stroke-miterlimit:10;}
	.st1{stroke:#000000;stroke-width:30;stroke-miterlimit:10;}
	.st2{fill:#FFFFFF;stroke:#000000;stroke-width:30;stroke-miterlimit:10;}
</style>
<ellipse class="st0" cx="297.6" cy="423.1" rx="275" ry="276.2"/>
<path class="st1" d="M402.5,299.1c0,64.2-46.9,116.2-104.8,116.2s-102-52.1-104.8-116.2c-2.6-59.2,45.6-113.7,104.8-116.2
	C355.6,180.4,402.5,234.9,402.5,299.1z"/>
<path class="st1" d="M477.2,630.3V516.9c-0.6-7.2-3.9-41.4-33.2-67.8c-28.4-25.7-61.5-26.2-69-26.2c-11.3,33.5-43.1,55.9-78,55
	c-33.5-0.8-63.2-22.9-74-55c-7.1-0.2-42-0.7-71.8,26.2c-29.3,26.5-32.7,60.6-33.2,67.8v113.4c0,7.9,7.6,14.4,17,14.4
	c15,11.9,37.3,26.9,67.1,38.2c39.1,14.9,73.8,17,95.5,16.5c23.2-2.2,53.1-7.1,86.5-18.5c31.6-10.8,57.2-24.3,76.4-36.2
	C461.4,644.8,467.4,645.1,477.2,630.3z"/>
<path class="st2" d="M541,459.9"/>
</svg>
