<?xml version="1.0" encoding="utf-8"?>
<!-- Generator: Adobe Illustrator 25.0.1, SVG Export Plug-In . SVG Version: 6.00 Build 0)  -->
<svg version="1.1" id="Camada_1" xmlns="http://www.w3.org/2000/svg" xmlns:xlink="http://www.w3.org/1999/xlink" x="0px" y="0px"
	 viewBox="0 0 595.3 841.9" style="enable-background:new 0 0 595.3 841.9;" xml:space="preserve">
<style type="text/css">
	.st0{stroke:#000000;stroke-width:30;stroke-miterlimit:10;}
	.st1{fill:none;stroke:#000000;stroke-width:45;stroke-miterlimit:10;}
	.st2{enable-background:new    ;}
</style>
<path class="st0" d="M541,459.9"/>
<path class="st1" d="M297.6,150.3c-151.9,0-275,123.7-275,276.2c14.5,366.4,535.5,366.3,550,0C572.6,274,449.5,150.3,297.6,150.3z"
	/>
<g class="st2">
	<path d="M163.5,510.9l86.7-96.2l-73-85.6c-6.9-8.3-12-15.4-15.5-21.4c-3.4-6-5.2-11.7-5.2-17.2c0-5.6,3.3-10.7,9.9-15.2
		c6.6-4.5,14.7-6.7,24.2-6.7c10.9,0,19.4,2.4,25.5,7.3c6.1,4.9,14.5,14,25.2,27.2l58.2,71.5l62.1-71.5c5.1-6,9.5-11.2,13.1-15.5
		c3.6-4.3,7.1-7.8,10.4-10.6c3.3-2.8,7.1-4.9,11.2-6.3c4.1-1.4,8.9-2.1,14.4-2.1c9.9,0,17.9,2.2,24.2,6.7c6.3,4.5,9.4,9.8,9.4,16
		c0,9-6.8,21.2-20.4,36.6l-76.4,86.8l82.2,96.2c7.4,8.4,12.8,15.4,16.1,21c3.3,5.6,5,10.8,5,15.8c0,4.7-1.5,9-4.5,12.9
		c-3,3.9-7.2,7-12.7,9.2c-5.5,2.3-11.6,3.4-18.5,3.4c-7.4,0-13.7-1.2-18.8-3.5c-5.1-2.3-9.3-5.3-12.4-8.7
		c-3.2-3.5-9.1-10.2-17.7-20.3l-68.2-81.6l-72.4,84c-5.6,6.7-9.6,11.4-12,14.1c-2.4,2.7-5.2,5.3-8.6,7.8c-3.4,2.5-7.3,4.6-11.9,6
		c-4.6,1.5-10,2.2-16.1,2.2c-9.5,0-17.4-2.2-23.7-6.6c-6.3-4.4-9.4-10.8-9.4-19.3C144.2,537.4,150.6,525.3,163.5,510.9z"/>
</g>
</svg>
