<?xml version="1.0" encoding="utf-8"?>
<!-- Generator: Adobe Illustrator 25.0.1, SVG Export Plug-In . SVG Version: 6.00 Build 0)  -->
<svg version="1.1" id="Layer_1" xmlns="http://www.w3.org/2000/svg" xmlns:xlink="http://www.w3.org/1999/xlink" x="0px" y="0px"
	 viewBox="0 0 512 512" style="enable-background:new 0 0 512 512;" xml:space="preserve">
<style type="text/css">
	.st0{display:none;}
</style>
<g>
	<g>
		<g>
			<path class="st0" d="M630.4,0H225.1c-29.9,0-53.3,23.5-53.3,53.3v405.3c0,29.9,23.5,53.3,53.3,53.3h405.3
				c29.9,0,53.3-23.5,53.3-53.3V53.3C683.7,23.5,660.3,0,630.4,0L630.4,0z M310.4,42.7c6.4,0,10.7,4.3,10.7,10.7S316.8,64,310.4,64
				s-10.7-4.3-10.7-10.7S304,42.7,310.4,42.7z M267.7,42.7c6.4,0,10.7,4.3,10.7,10.7S274.1,64,267.7,64S257,59.7,257,53.3
				S261.3,42.7,267.7,42.7z M225.1,42.7c6.4,0,10.7,4.3,10.7,10.7S231.5,64,225.1,64s-10.7-4.3-10.7-10.7S218.7,42.7,225.1,42.7z
				 M662.4,458.7c0,17.1-14.9,32-32,32H225.1c-17.1,0-32-14.9-32-32v-352h469.3V458.7L662.4,458.7z"/>
		</g>
	</g>
</g>
<path d="M311.7,344.9c-3.3,0,61.3,125.4,58,125.4c-76.8,0.4-146-0.4-222.9,0c10.5-21,57.3-109.1,62.9-125.5
	C231.7,344,289.7,345.7,311.7,344.9z"/>
<path d="M512,253.9c-39.8,68.8-79.6,137.7-119.5,206.4c-1.7,3-79.1-118.3-80.8-115.3c19.3-38.1,26.8-50.7,49.7-91.4
	c-18.1-31-29-54.4-49.5-88.4c-38.9-1.4-56.4-0.8-103.3-1.6c-23.2,43.2-38.8,67-49.7,91.4c-49.7,0.4-99.4,0.9-149.1,1.3L134.4,41
	l236.3-1.2L312,165.2l78.6-116.9L512,253.9z"/>
<polygon points="0,278.9 104.4,278.9 50.2,370.1 "/>
<polygon points="92.6,363.7 173.4,361.5 127.1,287.6 "/>
<polygon points="148,408.4 104.4,410.2 126.2,455.5 "/>
<polygon points="31.8,389.9 57.2,417.7 16.4,432 "/>
</svg>
