<?xml version="1.0" encoding="utf-8"?>
<!-- Generator: Adobe Illustrator 25.0.1, SVG Export Plug-In . SVG Version: 6.00 Build 0)  -->
<svg version="1.1" id="Camada_1" xmlns="http://www.w3.org/2000/svg" xmlns:xlink="http://www.w3.org/1999/xlink" x="0px" y="0px"
	 viewBox="0 0 595.3 841.9" style="enable-background:new 0 0 595.3 841.9;" xml:space="preserve">
<style type="text/css">
	.st0{stroke:#000000;stroke-width:30;stroke-miterlimit:10;}
	.st1{fill:none;stroke:#000000;stroke-width:45;stroke-miterlimit:10;}
	.st2{fill:none;stroke:#000000;stroke-width:42;stroke-miterlimit:10;}
	.st3{stroke:#000000;stroke-width:57;stroke-miterlimit:10;}
</style>
<path class="st0" d="M541,459.9"/>
<path class="st1" d="M297.6,150.3c-151.9,0-275,123.7-275,276.2c14.5,366.4,535.5,366.3,550,0C572.6,274,449.5,150.3,297.6,150.3z"
	/>
<path class="st2" d="M264,530.7c-70.5,0-127.5-57.9-127.5-129.3c6.8-171.5,248.3-171.4,255,0C391.5,472.8,334.5,530.7,264,530.7z"/>
<path class="st3" d="M427.9,519.4l-52-29.2l14.5-24.4l52,29.2c7,3.9,9.4,12.5,5.3,19.3C443.7,521.1,434.9,523.3,427.9,519.4z"/>
</svg>
